<svg xmlns="http://www.w3.org/2000/svg" xmlns:xlink="http://www.w3.org/1999/xlink" width="120" zoomAndPan="magnify" viewBox="0 0 90 60" height="80" preserveAspectRatio="xMidYMid meet" version="1.0"><defs><g/></defs><g fill="#ffffff" fill-opacity="1"><g transform="translate(-0.399955, 49.273217)"><g><path d="M 12.46875 0.859375 C 9.550781 0.859375 6.910156 0.390625 4.546875 -0.546875 C 2.191406 -1.492188 0.25 -2.875 -1.28125 -4.6875 L 5.484375 -12.6875 C 6.484375 -11.4375 7.460938 -10.507812 8.421875 -9.90625 C 9.378906 -9.300781 10.375 -9 11.40625 -9 C 12.71875 -9 13.71875 -9.390625 14.40625 -10.171875 C 15.101562 -10.960938 15.453125 -12.117188 15.453125 -13.640625 L 15.453125 -27.828125 L 2.765625 -27.828125 L 2.765625 -37.3125 L 27.875 -37.3125 L 27.875 -14.390625 C 27.875 -9.304688 26.566406 -5.492188 23.953125 -2.953125 C 21.347656 -0.410156 17.519531 0.859375 12.46875 0.859375 Z M 12.46875 0.859375 "/></g></g></g><g fill="#ffffff" fill-opacity="1"><g transform="translate(28.799858, 49.273217)"><g><path d="M 31.390625 -9.75 L 31.390625 0 L 1.5 0 L 1.5 -7.734375 L 14.96875 -20.203125 C 16.144531 -21.304688 16.925781 -22.25 17.3125 -23.03125 C 17.707031 -23.8125 17.90625 -24.570312 17.90625 -25.3125 C 17.90625 -26.238281 17.59375 -26.957031 16.96875 -27.46875 C 16.351562 -27.988281 15.457031 -28.25 14.28125 -28.25 C 13.144531 -28.25 12.078125 -27.945312 11.078125 -27.34375 C 10.085938 -26.738281 9.328125 -25.882812 8.796875 -24.78125 L -0.6875 -29.53125 C 0.726562 -32.195312 2.800781 -34.300781 5.53125 -35.84375 C 8.269531 -37.382812 11.578125 -38.15625 15.453125 -38.15625 C 18.398438 -38.15625 21.007812 -37.675781 23.28125 -36.71875 C 25.5625 -35.757812 27.34375 -34.390625 28.625 -32.609375 C 29.90625 -30.835938 30.546875 -28.796875 30.546875 -26.484375 C 30.546875 -24.421875 30.109375 -22.492188 29.234375 -20.703125 C 28.359375 -18.910156 26.660156 -16.878906 24.140625 -14.609375 L 18.8125 -9.75 Z M 31.390625 -9.75 "/></g></g></g><g fill="#ffffff" fill-opacity="1"><g transform="translate(59.811363, 49.273217)"><g><path d="M 12.46875 0.859375 C 9.550781 0.859375 6.910156 0.390625 4.546875 -0.546875 C 2.191406 -1.492188 0.25 -2.875 -1.28125 -4.6875 L 5.484375 -12.6875 C 6.484375 -11.4375 7.460938 -10.507812 8.421875 -9.90625 C 9.378906 -9.300781 10.375 -9 11.40625 -9 C 12.71875 -9 13.71875 -9.390625 14.40625 -10.171875 C 15.101562 -10.960938 15.453125 -12.117188 15.453125 -13.640625 L 15.453125 -27.828125 L 2.765625 -27.828125 L 2.765625 -37.3125 L 27.875 -37.3125 L 27.875 -14.390625 C 27.875 -9.304688 26.566406 -5.492188 23.953125 -2.953125 C 21.347656 -0.410156 17.519531 0.859375 12.46875 0.859375 Z M 12.46875 0.859375 "/></g></g></g></svg>